<?xml version="1.0" encoding="utf-8"?>
<!-- Generator: Adobe Illustrator 23.0.6, SVG Export Plug-In . SVG Version: 6.00 Build 0)  -->
<svg version="1.1" id="Ebene_1" xmlns="http://www.w3.org/2000/svg" xmlns:xlink="http://www.w3.org/1999/xlink" x="0px" y="0px"
	 viewBox="0 0 141.7 141.7" style="enable-background:new 0 0 141.7 141.7;" xml:space="preserve">
<style type="text/css">
	.st0{fill:#FFFFFF;}
	.st1{fill:#365462;}
	.st2{fill:none;}
	.st3{enable-background:new    ;}
</style>
<circle class="st0" cx="70.9" cy="70.9" r="70.9"/>
<g>
	<g>
		<path class="st0" d="M66.8,86.6"/>
		<polygon class="st1" points="111.8,42 29.9,42 29.9,94 44.9,94 44.9,112.9 69.3,94 111.8,94 		"/>
	</g>
</g>
<rect x="29.9" y="54.4" class="st2" width="81.8" height="27.6"/>
<g class="st3">
	<path class="st0" d="M37,54.8c0-0.3,0.1-0.4,0.4-0.4h10.1c2.8,0,4.9,0.6,6.2,1.9c1.3,1.3,2,2.9,2,5c0,1.4-0.3,2.6-0.9,3.5
		s-1.3,1.6-2.1,2.1v0.1c0.4,0.2,0.9,0.4,1.3,0.7s0.8,0.8,1.1,1.3c0.3,0.5,0.6,1.1,0.8,1.7c0.2,0.6,0.3,1.3,0.3,2.1
		c0,2.6-0.8,4.5-2.4,5.7c-1.6,1.2-3.8,1.8-6.6,1.8h-9.8c-0.3,0-0.4-0.1-0.4-0.4V54.8z M46.8,65c1.1,0,1.9-0.3,2.5-0.8
		c0.6-0.5,0.9-1.3,0.9-2.2c0-1-0.3-1.7-0.9-2.2c-0.6-0.5-1.4-0.8-2.5-0.8h-4c-0.2,0-0.2,0.1-0.2,0.2v5.6c0,0.2,0.1,0.2,0.2,0.2H46.8
		z M42.8,75.7h4.3c1.1,0,2-0.3,2.6-0.9c0.6-0.6,0.9-1.4,0.9-2.4c0-1-0.3-1.8-0.9-2.4c-0.6-0.6-1.5-0.9-2.6-0.9h-4.3
		c-0.2,0-0.2,0.1-0.2,0.2v6C42.6,75.6,42.7,75.7,42.8,75.7z"/>
	<path class="st0" d="M65.7,80.5c-2.1,0-3.5-0.5-4.4-1.4c-0.9-0.9-1.3-2.4-1.3-4.5V54.8c0-0.3,0.1-0.4,0.4-0.4H65
		c0.3,0,0.4,0.1,0.4,0.4v19.4c0,0.6,0.1,1.1,0.4,1.3C66,75.8,66.4,76,67,76h0.8c0.3,0,0.4,0.1,0.4,0.4v3.8c0,0.3-0.1,0.4-0.4,0.4
		H65.7z"/>
	<path class="st0" d="M79.3,80.7c-2,0-3.6-0.4-5.1-1.3s-2.4-2.2-2.9-3.8c-0.2-0.7-0.4-1.3-0.5-2c-0.1-0.7-0.2-1.5-0.2-2.4
		c0-0.9,0.1-1.7,0.2-2.4c0.1-0.7,0.3-1.4,0.5-2c0.5-1.7,1.5-3,2.9-3.8c1.4-0.9,3.1-1.3,5.1-1.3c2,0,3.6,0.4,5.1,1.3
		c1.4,0.9,2.4,2.2,2.9,3.8c0.2,0.7,0.4,1.3,0.5,2c0.1,0.7,0.2,1.5,0.2,2.4c0,0.9-0.1,1.7-0.2,2.4c-0.1,0.7-0.3,1.4-0.5,2
		c-0.5,1.7-1.5,3-2.9,3.8C83,80.2,81.3,80.7,79.3,80.7z M79.3,76.2c1.5,0,2.4-0.7,2.9-2c0.1-0.4,0.2-0.9,0.3-1.3s0.1-1.1,0.1-1.8
		c0-0.8,0-1.4-0.1-1.8s-0.1-0.9-0.3-1.3c-0.4-1.3-1.4-2-2.9-2c-1.5,0-2.4,0.7-2.8,2c-0.1,0.4-0.2,0.9-0.3,1.3
		c-0.1,0.4-0.1,1.1-0.1,1.8c0,0.8,0,1.4,0.1,1.8c0,0.4,0.1,0.9,0.3,1.3C76.9,75.5,77.9,76.2,79.3,76.2z"/>
	<path class="st0" d="M98.5,87.5c-0.7,0-1.4-0.1-2.1-0.2c-0.7-0.1-1.3-0.3-2-0.6c-0.6-0.2-1.2-0.5-1.7-0.9c-0.5-0.3-0.9-0.7-1.3-1.1
		c-0.2-0.2-0.1-0.4,0-0.6l2.7-2.7c0.2-0.2,0.4-0.2,0.6,0c0.6,0.5,1.2,0.9,1.8,1.2c0.6,0.3,1.3,0.4,2,0.4c1.3,0,2.2-0.3,2.8-1
		s0.9-1.7,0.9-3.1v-1.6h0c-0.4,0.7-1,1.2-1.8,1.6c-0.8,0.4-1.8,0.6-2.9,0.6c-1.5,0-2.8-0.4-3.9-1.1c-1.1-0.7-1.8-1.9-2.3-3.3
		c-0.2-0.7-0.4-1.4-0.5-2.1c-0.1-0.7-0.2-1.5-0.2-2.5c0-1,0.1-1.8,0.2-2.5c0.1-0.7,0.3-1.4,0.5-2.1c0.5-1.5,1.2-2.6,2.3-3.3
		c1.1-0.7,2.3-1.1,3.9-1.1c1.2,0,2.1,0.2,2.9,0.6c0.8,0.4,1.4,0.9,1.8,1.6h0v-1.3c0-0.3,0.1-0.4,0.4-0.4h4.6c0.3,0,0.4,0.1,0.4,0.4
		v16C107.6,84.4,104.6,87.5,98.5,87.5z M99.3,75c0.7,0,1.3-0.2,1.8-0.5c0.4-0.3,0.8-0.8,1-1.5c0.1-0.4,0.2-0.7,0.3-1.1
		c0-0.4,0.1-0.9,0.1-1.5s0-1.1-0.1-1.5c-0.1-0.4-0.1-0.8-0.3-1.1c-0.2-0.7-0.5-1.2-1-1.5c-0.4-0.3-1-0.5-1.8-0.5
		c-0.7,0-1.3,0.2-1.7,0.5c-0.4,0.3-0.8,0.8-1,1.5c-0.1,0.4-0.2,0.7-0.2,1.1s-0.1,0.9-0.1,1.5s0,1.1,0.1,1.5c0.1,0.4,0.1,0.8,0.2,1.1
		c0.2,0.7,0.6,1.2,1,1.5C97.9,74.9,98.5,75,99.3,75z"/>
</g>
</svg>
