<?xml version="1.0" encoding="utf-8"?>
<!-- Generator: Adobe Illustrator 23.0.6, SVG Export Plug-In . SVG Version: 6.00 Build 0)  -->
<svg version="1.1" id="Ebene_1" xmlns="http://www.w3.org/2000/svg" xmlns:xlink="http://www.w3.org/1999/xlink" x="0px" y="0px"
	 viewBox="0 0 141.7 141.7" style="enable-background:new 0 0 141.7 141.7;" xml:space="preserve">
<style type="text/css">
	.st0{fill:#365462;}
	.st1{fill:#FFFFFF;}
</style>
<circle class="st0" cx="70.9" cy="70.9" r="70.9"/>
<g>
	<path class="st1" d="M70.9,141.7"/>
	<path class="st1" d="M70.9,0C31.7,0,0,31.7,0,70.9c0,35.3,25.8,64.6,59.7,70c0-16.4,0-33.5,0-49.9c-5.9,0-11.8,0-17.8,0
		c0-7,0-13.8,0-20.7c5.9,0,11.8,0,17.9,0c0-0.6,0-1.1,0-1.6c0-5.3-0.1-10.6,0-15.9c0.2-6.5,1.8-12.5,6.1-17.6
		c3.7-4.4,8.5-6.8,13.9-7.8c5.2-1,10.5-0.7,15.7-0.1c2.3,0.3,4.6,0.6,6.9,0.8c0,5.9,0,11.7,0,17.7c-0.9,0-1.8,0-2.7,0
		c-3.2,0.1-6.4-0.1-9.5,0.4c-4.9,0.8-7.6,4-8.1,9.5C81.8,60,82,64.3,82,68.5c0,0.5,0,1,0,1.7c6.6,0,13.1,0,19.7,0
		c-1.1,7-2.1,13.8-3.2,20.7c-5.5,0-10.9,0-16.4,0c0,16.3,0,33.5,0,50c33.8-5.4,59.6-34.7,59.6-70C141.7,31.7,110,0,70.9,0z"/>
	<path class="st1" d="M0,70.5c0,0.1,0,0.2,0,0.3c0,0.2,0,0.4,0,0.6C0,71.1,0,70.8,0,70.5z"/>
	<path class="st1" d="M0.1,75.1c0-0.8-0.1-1.5-0.1-2.3C0.1,73.6,0.1,74.3,0.1,75.1z"/>
</g>
</svg>
