<?xml version="1.0" encoding="utf-8"?>
<!-- Generator: Adobe Illustrator 23.0.6, SVG Export Plug-In . SVG Version: 6.00 Build 0)  -->
<svg version="1.1" id="Ebene_1" xmlns="http://www.w3.org/2000/svg" xmlns:xlink="http://www.w3.org/1999/xlink" x="0px" y="0px"
	 viewBox="0 0 141.7 141.7" style="enable-background:new 0 0 141.7 141.7;" xml:space="preserve">
<style type="text/css">
	.st0{fill:#FFFFFF;}
	.st1{fill:#365462;}
</style>
<circle class="st0" cx="70.9" cy="70.9" r="70.9"/>
<g>
	<path class="st1" d="M108.5,42.1c-0.8,1.5-1.5,3-2.4,4.3c-0.9,1.3-2.2,2.4-3.2,4c2.4-0.7,4.8-1.4,7.7-2.3c-1.3,1.6-2.2,3-3.4,4.3
		c-1.1,1.2-2.3,2.3-3.6,3.2c-0.9,0.6-0.9,1.2-0.9,2c0.2,7.4-1.5,14.4-4.9,21c-6.5,12.6-16.5,20.6-30.6,23.5c-4.2,0.9-8.3,1-12.5,0.8
		c-6.5-0.2-15-3.1-20.8-7.1c4,0.6,7.8,0,11.6-0.9c3.9-1,7.5-2.6,10.9-5.4c-6.9-1-11.7-4.4-14-11c1.1,0,2.1,0,3,0
		c0.9,0,1.8-0.1,2.8-0.4c-3.3-1.3-6.1-3.1-8.2-6c-2.1-2.9-3.3-6-3-9.5c2,0.6,3.9,1.1,5.8,1.7c0-0.1,0.1-0.3,0.1-0.4
		c-6.2-5.4-7.7-13.7-3.7-20.6c8.3,10,19,15.4,32,16.5c0-0.5,0.1-0.9,0.1-1.3c-0.9-7,1.9-12.4,7.8-15.9c5.6-3.4,13.4-2.7,18.4,2.1
		c0.6,0.6,1.1,1,2.1,0.6C102.3,44.2,105.3,43.3,108.5,42.1z"/>
</g>
</svg>
