<?xml version="1.0" encoding="utf-8"?>
<!-- Generator: Adobe Illustrator 23.0.6, SVG Export Plug-In . SVG Version: 6.00 Build 0)  -->
<svg version="1.1" id="Ebene_1" xmlns="http://www.w3.org/2000/svg" xmlns:xlink="http://www.w3.org/1999/xlink" x="0px" y="0px"
	 viewBox="0 0 141.7 141.7" style="enable-background:new 0 0 141.7 141.7;" xml:space="preserve">
<style type="text/css">
	.st0{fill:#FFFFFF;}
	.st1{fill:#365462;}
</style>
<circle class="st0" cx="70.9" cy="70.9" r="70.9"/>
<g>
	<path class="st1" d="M91.9,119c-2.7,0-5.5,0-8.2,0c-0.7,0-1.1-0.2-1.5-0.8c-1.9-3.5-4-6.9-5.9-10.4c-2.7-4.7-5.4-9.5-8.1-14.2
		c-2-3.4-3.9-6.8-5.9-10.3c-0.1-0.3-0.2-0.7,0-1c2.2-3.9,4.5-7.8,6.8-11.8c2.1-3.7,4.2-7.3,6.4-11c2.4-4.1,4.8-8.3,7.2-12.4
		c2.2-3.7,4.3-7.5,6.4-11.3c1.4-2.5,2.7-5,4.2-7.3c0.6-0.8,1.9-1.6,2.9-1.6c4.8-0.2,9.5-0.1,14.3-0.1c1.7,0,2.2,1.1,1.4,2.7
		c-0.9,1.6-1.9,3.2-2.8,4.9c-2.1,3.6-4.1,7.2-6.2,10.8c-2.7,4.7-5.3,9.3-8,14c-1.9,3.4-3.8,6.7-5.7,10.1c-2.3,4-4.6,8.1-6.9,12.1
		c-0.4,0.7-0.5,1.2-0.1,1.9c2.1,3.7,4.1,7.5,6.2,11.2c2.5,4.6,5.1,9.2,7.6,13.8c1.7,3,3.3,6.1,4.9,9.1c0.6,1.1,0.4,1.4-0.8,1.4
		C97.3,119,94.6,119,91.9,119z"/>
	<path class="st1" d="M40.8,92.9c-2.2,0-4.5-0.2-6.7,0.1c-1.9,0.2-2.9-1.8-2-3.5c2.1-3.8,4.2-7.5,6.3-11.3c2.6-4.6,5.2-9.3,7.8-14
		c0.2-0.4,0.1-1.1-0.1-1.5c-2.2-3.8-4.4-7.6-6.6-11.4c-0.8-1.4-1.7-2.7-2.3-4.2c-0.4-0.8-0.5-1.8-0.4-2.7c0.2-1.4,0.9-1.9,2.5-1.9
		c4.3,0,8.6,0.1,12.9,0c1.2,0,2,0.4,2.5,1.3c0.9,1.5,1.8,2.9,2.6,4.4c2.6,4.8,5.1,9.7,7.7,14.6c0.4,0.7,0.4,1.1,0,1.8
		c-4.6,8.5-9.1,17.1-13.6,25.7C50.3,92.1,49,93,47,92.9C44.9,92.8,42.8,92.9,40.8,92.9z"/>
</g>
</svg>
