<?xml version="1.0" encoding="utf-8"?>
<!-- Generator: Adobe Illustrator 23.0.6, SVG Export Plug-In . SVG Version: 6.00 Build 0)  -->
<svg version="1.1" id="Ebene_1" xmlns="http://www.w3.org/2000/svg" xmlns:xlink="http://www.w3.org/1999/xlink" x="0px" y="0px"
	 viewBox="0 0 141.7 141.7" style="enable-background:new 0 0 141.7 141.7;" xml:space="preserve">
<style type="text/css">
	.st0{fill:#FFFFFF;}
	.st1{fill:#365462;}
</style>
<circle class="st0" cx="70.9" cy="70.9" r="70.9"/>
<g>
	<path class="st1" d="M70.3,96c-7.3-0.2-14.6-0.4-21.9-0.8c-2-0.1-4-0.3-5.9-0.8c-4.1-1.2-6.8-3.9-7.4-8.3
		C34,78,34.1,69.8,34.5,61.7c0.1-2.3,0.6-4.7,0.8-7c0.5-4.2,4.6-7.7,8.8-7.9c7.9-0.5,15.7-1,23.6-1.1c8.1-0.1,16.1,0.3,24.2,0.5
		c2.1,0.1,4.1,0.3,6.2,0.7c4.3,0.8,6.9,3.5,7.7,7.9c1.1,6,1.3,12,1.1,18c-0.2,4.6-0.5,9.2-1.1,13.8c-0.6,4.5-4.1,7.6-8.7,8.2
		c-8.2,1-16.5,1-24.8,1.1c-0.6,0-1.3,0-1.9,0C70.3,95.9,70.3,96,70.3,96z M63.7,59.6c0,7.6,0,14.9,0,22.4
		c6.1-3.8,12.1-7.4,18.2-11.2C75.8,67,69.8,63.3,63.7,59.6z"/>
</g>
</svg>
